<svg width="198" height="82" viewBox="0 0 198 82" fill="none" xmlns="http://www.w3.org/2000/svg">
<path d="M61.7017 39.4887H66.7057C67.1963 42.1174 69.5184 43.4318 72.5274 43.4318C75.2421 43.4318 77.9896 42.5775 77.9896 40.7045C77.9896 36.137 62.6172 39.6858 62.6172 30.9451C62.6172 26.5091 66.7055 24.0445 71.8407 24.0445C77.6623 24.0445 81.6528 27.2976 82.2086 32.2595H77.172C76.6814 29.9594 75.2422 28.3164 71.4483 28.3164C69.2242 28.3164 67.5236 29.3679 67.5236 30.6494C67.5236 34.6911 82.896 31.8652 82.896 40.7045C82.896 45.3377 78.2188 47.7035 73.1822 47.7035C66.4775 47.7035 62.2904 45.0092 61.7017 39.4887Z" fill="white"/>
<path d="M94.9358 47.3762H90.1606L84.6988 29.3038H89.474L94.9358 47.3762Z" fill="white"/>
<path d="M92.9406 53.9479L100.398 29.3034H105.173L97.7157 53.9479H92.9406Z" fill="white"/>
<path d="M115.741 33.4086C112.83 33.4086 110.803 34.8544 110.803 37.516V47.3738H106.223V29.3015H110.803V31.3387C111.882 29.7944 113.713 28.9729 116.723 28.9729C121.694 28.9729 125.259 32.1931 125.259 37.5163V47.374H120.681V37.5163C120.681 34.9861 118.751 33.4089 115.742 33.4089L115.741 33.4086Z" fill="white"/>
<path d="M127.048 35.8738C127.048 28.1849 131.594 24.0443 139.149 24.0443C145.658 24.0443 149.648 27.0674 150.858 32.2593H145.821C144.873 29.5648 142.649 28.9734 139.149 28.9734C134.112 28.9734 131.954 30.7807 131.954 35.8739C131.954 41.0986 134.341 42.7745 139.149 42.7745C142.812 42.7745 144.938 42.1502 145.854 39.4886H150.858C149.616 44.8447 145.429 47.7036 139.149 47.7036C131.3 47.7036 127.048 43.2672 127.048 35.8738Z" fill="white"/>
<path d="M123.482 54.1347C124.707 54.1347 125.6 54.3592 126.16 54.8082C126.721 55.2571 127.001 55.8898 127.001 56.7061C127.001 57.0653 126.935 57.4122 126.804 57.7469C126.681 58.0735 126.475 58.3673 126.187 58.6286C125.898 58.8898 125.513 59.098 125.031 59.2531C124.55 59.4 123.959 59.4735 123.258 59.4735H122.182V62.8776H121V54.1347H123.482ZM123.377 55.0776H122.182V58.5306H123.127C123.722 58.5306 124.217 58.4735 124.611 58.3592C125.005 58.2367 125.298 58.0449 125.491 57.7837C125.683 57.5224 125.78 57.1796 125.78 56.7551C125.78 56.1918 125.587 55.7714 125.202 55.4939C124.817 55.2163 124.208 55.0776 123.377 55.0776Z" fill="white"/>
<path d="M129.344 62.8776V54.1347H130.526V61.898H134.623V62.8776H129.344Z" fill="white"/>
<path d="M142.506 62.8776L141.377 60.1714H137.661L136.545 62.8776H135.35L139.014 54.098H140.077L143.728 62.8776H142.506ZM139.972 56.5469C139.946 56.4816 139.902 56.3633 139.841 56.1918C139.78 56.0204 139.718 55.8449 139.657 55.6653C139.605 55.4776 139.561 55.3347 139.526 55.2367C139.482 55.4 139.434 55.5673 139.381 55.7388C139.338 55.902 139.289 56.0531 139.237 56.1918C139.193 56.3306 139.154 56.449 139.119 56.5469L138.055 59.1918H141.023L139.972 56.5469Z" fill="white"/>
<path d="M147.448 62.8776H146.267V55.102H143.338V54.1347H150.363V55.102H147.448V62.8776Z" fill="white"/>
<path d="M153.402 62.8776H152.221V54.1347H157.46V55.102H153.402V58.2H157.21V59.1673H153.402V62.8776Z" fill="white"/>
<path d="M167.604 58.4939C167.604 59.1714 167.512 59.7878 167.328 60.3429C167.144 60.8898 166.869 61.3633 166.501 61.7633C166.142 62.1633 165.691 62.4694 165.148 62.6816C164.614 62.8939 163.993 63 163.284 63C162.549 63 161.91 62.8939 161.367 62.6816C160.824 62.4612 160.373 62.1551 160.014 61.7633C159.655 61.3633 159.388 60.8857 159.213 60.3306C159.038 59.7755 158.951 59.1592 158.951 58.4816C158.951 57.5837 159.108 56.8 159.423 56.1306C159.739 55.4612 160.216 54.9388 160.855 54.5633C161.503 54.1878 162.317 54 163.297 54C164.234 54 165.022 54.1878 165.661 54.5633C166.3 54.9306 166.781 55.4531 167.105 56.1306C167.438 56.8 167.604 57.5878 167.604 58.4939ZM160.198 58.4939C160.198 59.2286 160.308 59.8612 160.526 60.3918C160.745 60.9224 161.082 61.3306 161.538 61.6163C162.001 61.902 162.584 62.0449 163.284 62.0449C163.993 62.0449 164.571 61.902 165.017 61.6163C165.472 61.3306 165.809 60.9224 166.028 60.3918C166.247 59.8612 166.356 59.2286 166.356 58.4939C166.356 57.3918 166.111 56.5306 165.621 55.9102C165.131 55.2816 164.356 54.9673 163.297 54.9673C162.588 54.9673 162.001 55.1102 161.538 55.3959C161.082 55.6735 160.745 56.0776 160.526 56.6082C160.308 57.1306 160.198 57.7592 160.198 58.4939Z" fill="white"/>
<path d="M172.662 54.1347C173.442 54.1347 174.081 54.2286 174.58 54.4163C175.087 54.5959 175.464 54.8694 175.709 55.2367C175.954 55.6041 176.076 56.0653 176.076 56.6204C176.076 57.0857 175.985 57.4735 175.801 57.7837C175.617 58.0939 175.381 58.3429 175.092 58.5306C174.812 58.7102 174.514 58.8531 174.199 58.9592L176.772 62.8776H175.394L173.122 59.2653H171.257V62.8776H170.076V54.1347H172.662ZM172.597 55.0898H171.257V58.3347H172.662C173.17 58.3347 173.586 58.2735 173.91 58.151C174.234 58.0204 174.47 57.8327 174.619 57.5878C174.776 57.3429 174.855 57.0367 174.855 56.6694C174.855 56.2857 174.772 55.9796 174.606 55.751C174.448 55.5224 174.203 55.3551 173.87 55.249C173.538 55.1429 173.113 55.0898 172.597 55.0898Z" fill="white"/>
<path d="M182.774 62.8776L179.688 55.2122H179.636C179.653 55.3755 179.666 55.5837 179.675 55.8367C179.693 56.0898 179.706 56.3673 179.715 56.6694C179.723 56.9633 179.728 57.2653 179.728 57.5755V62.8776H178.638V54.1347H180.384L183.273 61.298H183.325L186.267 54.1347H188V62.8776H186.831V57.502C186.831 57.2163 186.836 56.9347 186.845 56.6571C186.853 56.3714 186.866 56.1061 186.884 55.8612C186.901 55.6082 186.915 55.3959 186.923 55.2245H186.871L183.746 62.8776H182.774Z" fill="white"/>
<path d="M180.705 23.4619C184.571 23.4619 187.705 26.5959 187.705 30.4619V41.3848C187.705 45.2507 184.571 48.3848 180.705 48.3848H165.304C161.438 48.3848 158.304 45.2507 158.304 41.3848V30.4619C158.304 26.5959 161.438 23.4619 165.304 23.4619H180.705ZM169.075 28.9961L171.774 36.6562L168.519 37.4961L170.148 32.8672H166.872L163.124 43.5137H166.4L167.431 40.5859L172.683 39.2314L174.191 43.5137H177.468L172.352 28.9961H169.075ZM175.867 32.8232L179.636 43.5137H182.912L179.144 32.8232H175.867ZM174.519 28.9961L175.328 31.293H178.604L177.795 28.9961H174.519Z" fill="white"/>
<path d="M29.0093 18.8452C31.1886 18.8454 33.0679 20.4422 33.9341 22.7456H33.6616C37.3888 22.764 40.7734 24.2307 43.2817 26.6118C41.2796 25.0069 38.7397 24.0446 35.9741 24.0444H26.2808C19.8217 24.0447 14.5857 29.2807 14.5854 35.7397C14.5854 42.1991 19.8215 47.4358 26.2808 47.436H35.9741C42.259 47.4357 47.3856 42.4781 47.6577 36.2603C47.6653 36.0878 47.6694 35.914 47.6694 35.7397C47.6694 34.5352 47.4861 33.3732 47.1479 32.2798C49.1821 32.3713 50.8038 34.0483 50.8042 36.105V37.9731C50.8042 40.0888 49.0887 41.804 46.9731 41.8042V41.2017C45.154 46.7653 39.9641 50.8006 33.8159 50.897C34.9557 51.878 35.8776 53.2241 36.4702 54.8003H22.2485C22.8401 53.227 23.7589 51.8824 24.896 50.9019H24.8325C18.5873 50.9017 13.2929 46.8344 11.4507 41.2046V41.8052C9.33501 41.8052 7.6197 40.0898 7.61963 37.9741V36.106C7.61963 33.9902 9.33497 32.2749 11.4507 32.2749V32.4399C13.2861 26.8329 18.5463 22.7772 24.7593 22.7456H24.0854C24.9517 20.4424 26.83 18.8454 29.0093 18.8452ZM37.5894 39.6392C36.9752 41.2724 35.6425 42.4045 34.0972 42.4048C32.5518 42.4048 31.2192 41.2724 30.605 39.6392H37.5894ZM25.0327 30.5425C26.1866 30.5426 27.1224 31.6087 27.1226 32.9243C27.1226 34.2401 26.1867 35.307 25.0327 35.3071C23.8787 35.3071 22.9429 34.2401 22.9429 32.9243C22.943 31.6086 23.8788 30.5425 25.0327 30.5425ZM41.5747 30.5425C42.6325 30.5425 43.4906 31.6086 43.4907 32.9243C43.4907 34.2401 42.6326 35.3071 41.5747 35.3071C40.5169 35.307 39.6597 34.2401 39.6597 32.9243C39.6598 31.6087 40.517 30.5426 41.5747 30.5425Z" fill="white"/>
</svg>
